<mxfile host="app.diagrams.net" agent="Mozilla/5.0 (Windows NT 10.0; Win64; x64) AppleWebKit/537.36 (KHTML, like Gecko) Chrome/136.0.0.0 Safari/537.36 Edg/136.0.0.0" version="26.2.15">
  <diagram id="C5RBs43oDa-KdzZeNtuy" name="Page-1">
    <mxGraphModel dx="1165" dy="671" grid="1" gridSize="10" guides="1" tooltips="1" connect="1" arrows="1" fold="1" page="1" pageScale="1" pageWidth="827" pageHeight="1169" math="0" shadow="0">
      <root>
        <mxCell id="WIyWlLk6GJQsqaUBKTNV-0" />
        <mxCell id="WIyWlLk6GJQsqaUBKTNV-1" parent="WIyWlLk6GJQsqaUBKTNV-0" />
        <mxCell id="hIzQJm_3JNzrbFtOD5tb-20" style="edgeStyle=orthogonalEdgeStyle;rounded=0;orthogonalLoop=1;jettySize=auto;html=1;entryX=0.5;entryY=0;entryDx=0;entryDy=0;" edge="1" parent="WIyWlLk6GJQsqaUBKTNV-1" source="WIyWlLk6GJQsqaUBKTNV-3" target="WIyWlLk6GJQsqaUBKTNV-6">
          <mxGeometry relative="1" as="geometry" />
        </mxCell>
        <mxCell id="WIyWlLk6GJQsqaUBKTNV-3" value="前端界面" style="rounded=1;whiteSpace=wrap;html=1;fontSize=12;glass=0;strokeWidth=1;shadow=0;" parent="WIyWlLk6GJQsqaUBKTNV-1" vertex="1">
          <mxGeometry x="354" y="120" width="120" height="40" as="geometry" />
        </mxCell>
        <mxCell id="hIzQJm_3JNzrbFtOD5tb-3" style="edgeStyle=orthogonalEdgeStyle;rounded=0;orthogonalLoop=1;jettySize=auto;html=1;entryX=0.5;entryY=0;entryDx=0;entryDy=0;" edge="1" parent="WIyWlLk6GJQsqaUBKTNV-1" source="WIyWlLk6GJQsqaUBKTNV-6" target="hIzQJm_3JNzrbFtOD5tb-0">
          <mxGeometry relative="1" as="geometry" />
        </mxCell>
        <mxCell id="hIzQJm_3JNzrbFtOD5tb-19" style="edgeStyle=orthogonalEdgeStyle;rounded=0;orthogonalLoop=1;jettySize=auto;html=1;entryX=0.5;entryY=0;entryDx=0;entryDy=0;" edge="1" parent="WIyWlLk6GJQsqaUBKTNV-1" source="WIyWlLk6GJQsqaUBKTNV-6" target="hIzQJm_3JNzrbFtOD5tb-1">
          <mxGeometry relative="1" as="geometry" />
        </mxCell>
        <mxCell id="WIyWlLk6GJQsqaUBKTNV-6" value="选择后端api服务" style="rhombus;whiteSpace=wrap;html=1;shadow=0;fontFamily=Helvetica;fontSize=12;align=center;strokeWidth=1;spacing=6;spacingTop=-4;" parent="WIyWlLk6GJQsqaUBKTNV-1" vertex="1">
          <mxGeometry x="344" y="190" width="140" height="110" as="geometry" />
        </mxCell>
        <mxCell id="hIzQJm_3JNzrbFtOD5tb-7" style="edgeStyle=orthogonalEdgeStyle;rounded=0;orthogonalLoop=1;jettySize=auto;html=1;entryX=0.5;entryY=0;entryDx=0;entryDy=0;" edge="1" parent="WIyWlLk6GJQsqaUBKTNV-1" source="hIzQJm_3JNzrbFtOD5tb-0" target="hIzQJm_3JNzrbFtOD5tb-5">
          <mxGeometry relative="1" as="geometry" />
        </mxCell>
        <mxCell id="hIzQJm_3JNzrbFtOD5tb-0" value="[图片识别+批改]（/analyze_essay）" style="rounded=1;whiteSpace=wrap;html=1;" vertex="1" parent="WIyWlLk6GJQsqaUBKTNV-1">
          <mxGeometry x="200" y="280" width="120" height="60" as="geometry" />
        </mxCell>
        <mxCell id="hIzQJm_3JNzrbFtOD5tb-8" style="edgeStyle=orthogonalEdgeStyle;rounded=0;orthogonalLoop=1;jettySize=auto;html=1;" edge="1" parent="WIyWlLk6GJQsqaUBKTNV-1" source="hIzQJm_3JNzrbFtOD5tb-1" target="hIzQJm_3JNzrbFtOD5tb-6">
          <mxGeometry relative="1" as="geometry" />
        </mxCell>
        <mxCell id="hIzQJm_3JNzrbFtOD5tb-1" value="[文本对话/讲解]（/chat）" style="rounded=1;whiteSpace=wrap;html=1;" vertex="1" parent="WIyWlLk6GJQsqaUBKTNV-1">
          <mxGeometry x="510" y="280" width="120" height="60" as="geometry" />
        </mxCell>
        <mxCell id="hIzQJm_3JNzrbFtOD5tb-12" style="edgeStyle=orthogonalEdgeStyle;rounded=0;orthogonalLoop=1;jettySize=auto;html=1;exitX=0.5;exitY=1;exitDx=0;exitDy=0;entryX=0;entryY=0.5;entryDx=0;entryDy=0;" edge="1" parent="WIyWlLk6GJQsqaUBKTNV-1" source="hIzQJm_3JNzrbFtOD5tb-5" target="hIzQJm_3JNzrbFtOD5tb-11">
          <mxGeometry relative="1" as="geometry" />
        </mxCell>
        <mxCell id="hIzQJm_3JNzrbFtOD5tb-5" value="图片Base64编码&lt;div&gt;调用AI模型&lt;/div&gt;" style="rounded=1;whiteSpace=wrap;html=1;" vertex="1" parent="WIyWlLk6GJQsqaUBKTNV-1">
          <mxGeometry x="200" y="370" width="120" height="60" as="geometry" />
        </mxCell>
        <mxCell id="hIzQJm_3JNzrbFtOD5tb-13" style="edgeStyle=orthogonalEdgeStyle;rounded=0;orthogonalLoop=1;jettySize=auto;html=1;exitX=0.5;exitY=1;exitDx=0;exitDy=0;entryX=1;entryY=0.5;entryDx=0;entryDy=0;" edge="1" parent="WIyWlLk6GJQsqaUBKTNV-1" source="hIzQJm_3JNzrbFtOD5tb-6" target="hIzQJm_3JNzrbFtOD5tb-11">
          <mxGeometry relative="1" as="geometry" />
        </mxCell>
        <mxCell id="hIzQJm_3JNzrbFtOD5tb-6" value="组装参数&lt;div&gt;调用AI模型&lt;/div&gt;" style="rounded=1;whiteSpace=wrap;html=1;" vertex="1" parent="WIyWlLk6GJQsqaUBKTNV-1">
          <mxGeometry x="510" y="370" width="120" height="60" as="geometry" />
        </mxCell>
        <mxCell id="hIzQJm_3JNzrbFtOD5tb-17" style="edgeStyle=orthogonalEdgeStyle;rounded=0;orthogonalLoop=1;jettySize=auto;html=1;entryX=0.5;entryY=0;entryDx=0;entryDy=0;" edge="1" parent="WIyWlLk6GJQsqaUBKTNV-1" source="hIzQJm_3JNzrbFtOD5tb-9" target="hIzQJm_3JNzrbFtOD5tb-16">
          <mxGeometry relative="1" as="geometry" />
        </mxCell>
        <mxCell id="hIzQJm_3JNzrbFtOD5tb-9" value="AI返回识别+批改结果" style="rounded=1;whiteSpace=wrap;html=1;" vertex="1" parent="WIyWlLk6GJQsqaUBKTNV-1">
          <mxGeometry x="200" y="530" width="120" height="60" as="geometry" />
        </mxCell>
        <mxCell id="hIzQJm_3JNzrbFtOD5tb-18" style="edgeStyle=orthogonalEdgeStyle;rounded=0;orthogonalLoop=1;jettySize=auto;html=1;" edge="1" parent="WIyWlLk6GJQsqaUBKTNV-1" source="hIzQJm_3JNzrbFtOD5tb-10" target="hIzQJm_3JNzrbFtOD5tb-16">
          <mxGeometry relative="1" as="geometry" />
        </mxCell>
        <mxCell id="hIzQJm_3JNzrbFtOD5tb-10" value="AI返回讲解内容&lt;div&gt;（流式或普通）&lt;/div&gt;" style="rounded=1;whiteSpace=wrap;html=1;" vertex="1" parent="WIyWlLk6GJQsqaUBKTNV-1">
          <mxGeometry x="510" y="530" width="120" height="60" as="geometry" />
        </mxCell>
        <mxCell id="hIzQJm_3JNzrbFtOD5tb-14" style="edgeStyle=orthogonalEdgeStyle;rounded=0;orthogonalLoop=1;jettySize=auto;html=1;entryX=0.5;entryY=0;entryDx=0;entryDy=0;" edge="1" parent="WIyWlLk6GJQsqaUBKTNV-1" source="hIzQJm_3JNzrbFtOD5tb-11" target="hIzQJm_3JNzrbFtOD5tb-9">
          <mxGeometry relative="1" as="geometry" />
        </mxCell>
        <mxCell id="hIzQJm_3JNzrbFtOD5tb-15" style="edgeStyle=orthogonalEdgeStyle;rounded=0;orthogonalLoop=1;jettySize=auto;html=1;" edge="1" parent="WIyWlLk6GJQsqaUBKTNV-1" source="hIzQJm_3JNzrbFtOD5tb-11" target="hIzQJm_3JNzrbFtOD5tb-10">
          <mxGeometry relative="1" as="geometry" />
        </mxCell>
        <mxCell id="hIzQJm_3JNzrbFtOD5tb-11" value="AI大模型API&lt;div&gt;（vivo BlueLM）&lt;/div&gt;" style="rounded=1;whiteSpace=wrap;html=1;" vertex="1" parent="WIyWlLk6GJQsqaUBKTNV-1">
          <mxGeometry x="354" y="450" width="120" height="60" as="geometry" />
        </mxCell>
        <mxCell id="hIzQJm_3JNzrbFtOD5tb-16" value="&lt;div&gt;后端处理结果&lt;/div&gt;&lt;div&gt;前端展示&lt;/div&gt;" style="rounded=1;whiteSpace=wrap;html=1;" vertex="1" parent="WIyWlLk6GJQsqaUBKTNV-1">
          <mxGeometry x="354" y="620" width="120" height="60" as="geometry" />
        </mxCell>
      </root>
    </mxGraphModel>
  </diagram>
</mxfile>
